<svg id="Wheat" enable-background="new 0 0 64 64" height="512" viewBox="0 0 64 64" width="512" xmlns="http://www.w3.org/2000/svg"><g><g fill="#fcdd5e"><path d="m32 16.8s-5.2-2.9-5.2-8.5c0-4.3 3.1-7 4.6-8 .4-.3.9-.3 1.4 0 1.4 1 4.6 3.7 4.6 8-.2 5.6-5.4 8.5-5.4 8.5z"/><path d="m32 25.3s-5.3 2.8-10-.3c-3.6-2.4-4.2-6.5-4.3-8.2 0-.5.3-1 .7-1.1 1.6-.6 5.6-1.8 9.2.6 4.9 3.1 4.4 9 4.4 9z"/><path d="m32 25.3s5.3 2.8 10-.3c3.6-2.4 4.2-6.5 4.3-8.2 0-.5-.3-1-.7-1.1-1.6-.6-5.6-1.8-9.2.6-4.9 3.1-4.4 9-4.4 9z"/><path d="m32 37.4s-5.3 2.8-10-.3c-3.6-2.4-4.2-6.5-4.3-8.2 0-.5.3-1 .7-1.1 1.6-.6 5.6-1.8 9.2.6 4.9 3 4.4 9 4.4 9z"/><path d="m32 37.4s5.3 2.8 10-.3c3.6-2.4 4.2-6.5 4.3-8.2 0-.5-.3-1-.7-1.1-1.6-.6-5.6-1.8-9.2.6-4.9 3-4.4 9-4.4 9z"/><path d="m32 49.4s-5.3 2.8-10-.3c-3.6-2.4-4.2-6.5-4.3-8.2 0-.5.3-1 .7-1.1 1.6-.6 5.6-1.8 9.2.6 4.9 3.1 4.4 9 4.4 9z"/><path d="m32 49.4s5.3 2.8 10-.3c3.6-2.4 4.2-6.5 4.3-8.2 0-.5-.3-1-.7-1.1-1.6-.6-5.6-1.8-9.2.6-4.9 3.1-4.4 9-4.4 9z"/></g><path d="m32 64c-.7 0-1.3-.6-1.3-1.3v-46c0-.7.6-1.3 1.3-1.3s1.3.6 1.3 1.3v46c0 .7-.6 1.3-1.3 1.3z" fill="#e0ad48"/></g></svg>